HIERARCHY
ROOT locator2
{
  OFFSET 53.6172 30.1899 0.816905
  CHANNELS 6 Xposition Yposition Zposition Zrotation Xrotation Yrotation
  JOINT koshi
  {
    OFFSET 0 0 0
    CHANNELS 6 Xposition Yposition Zposition Zrotation Xrotation Yrotation
    JOINT sippo01
    {
      OFFSET 0 42.8363 -0.548134
      CHANNELS 6 Xposition Yposition Zposition Zrotation Xrotation Yrotation
      JOINT sippo02
      {
        OFFSET 0 44.0461 -3.28882
        CHANNELS 6 Xposition Yposition Zposition Zrotation Xrotation Yrotation
        JOINT sippo03
        {
          OFFSET 0 34.1929 -2.46662
          CHANNELS 6 Xposition Yposition Zposition Zrotation Xrotation Yrotation
          JOINT sippo04
          {
            OFFSET 0 30.0959 -1.75404
            CHANNELS 6 Xposition Yposition Zposition Zrotation Xrotation Yrotation
            JOINT sippo05
            {
              OFFSET 0 28.3637 -1.75404
              CHANNELS 6 Xposition Yposition Zposition Zrotation Xrotation Yrotation
              JOINT sippo06
              {
                OFFSET 0 31.6071 -3.2043
                CHANNELS 6 Xposition Yposition Zposition Zrotation Xrotation Yrotation
                End Site
                {
                  OFFSET 0 0 0
                }
              }
            }
          }
        }
      }
    }
    JOINT R_momo
    {
      OFFSET -27.891 13.5892 3.92723
      CHANNELS 6 Xposition Yposition Zposition Zrotation Xrotation Yrotation
      JOINT R_hiza
      {
        OFFSET 0 28.01 1.8232
        CHANNELS 6 Xposition Yposition Zposition Zrotation Xrotation Yrotation
        JOINT R_ashi
        {
          OFFSET 0 24.3992 -2.49174
          CHANNELS 6 Xposition Yposition Zposition Zrotation Xrotation Yrotation
          End Site
          {
            OFFSET 0 0 0
          }
        }
      }
    }
    JOINT L_momo
    {
      OFFSET 27.891 13.5892 3.92714
      CHANNELS 6 Xposition Yposition Zposition Zrotation Xrotation Yrotation
      JOINT L_hiza
      {
        OFFSET 0 28.0098 1.82319
        CHANNELS 6 Xposition Yposition Zposition Zrotation Xrotation Yrotation
        JOINT L_ashi
        {
          OFFSET 0 24.3992 -2.49171
          CHANNELS 6 Xposition Yposition Zposition Zrotation Xrotation Yrotation
          End Site
          {
            OFFSET 0 0 0
          }
        }
      }
    }
  }
  JOINT hara
  {
    OFFSET 0 2.15392 0
    CHANNELS 6 Xposition Yposition Zposition Zrotation Xrotation Yrotation
    JOINT mune
    {
      OFFSET 0 62.0609 0.472494
      CHANNELS 6 Xposition Yposition Zposition Zrotation Xrotation Yrotation
      JOINT R_kata
      {
        OFFSET 22.6695 9.65301 -5.3622
        CHANNELS 6 Xposition Yposition Zposition Zrotation Xrotation Yrotation
        JOINT R_hiji
        {
          OFFSET 0 25.813 1.69098
          CHANNELS 6 Xposition Yposition Zposition Zrotation Xrotation Yrotation
          JOINT R_te
          {
            OFFSET 0 28.5636 -0.966307
            CHANNELS 6 Xposition Yposition Zposition Zrotation Xrotation Yrotation
            End Site
            {
              OFFSET 0 0 0
            }
          }
        }
      }
      JOINT L_kata
      {
        OFFSET -22.6695 9.65298 -5.3622
        CHANNELS 6 Xposition Yposition Zposition Zrotation Xrotation Yrotation
        JOINT L_hiji
        {
          OFFSET 0 25.813 1.69102
          CHANNELS 6 Xposition Yposition Zposition Zrotation Xrotation Yrotation
          JOINT L_te
          {
            OFFSET 0 28.5636 -0.966295
            CHANNELS 6 Xposition Yposition Zposition Zrotation Xrotation Yrotation
            End Site
            {
              OFFSET 0 0 0
            }
          }
        }
      }
      JOINT kubi
      {
        OFFSET 0 23.1438 -0.944988
        CHANNELS 6 Xposition Yposition Zposition Zrotation Xrotation Yrotation
        JOINT atama
        {
          OFFSET 0 20.8625 4.12737
          CHANNELS 6 Xposition Yposition Zposition Zrotation Xrotation Yrotation
          JOINT ago
          {
            OFFSET 0 7.552 -7.58201
            CHANNELS 6 Xposition Yposition Zposition Zrotation Xrotation Yrotation
            End Site
            {
              OFFSET 0 0 0
            }
          }
        }
      }
    }
  }
}
MOTION
Frames:	5
Frame Time:	0.0333333
0 26.5759 -4.52795e-006 -90 -3.50835e-015 -90 0 -3.38813e-021 0 -174.665 3.09254 0.502546 -2.98023e-007 42.8363 -0.548134 2.96661 -15.9213 3.73677 -1.72853e-006 44.0461 -3.28882 5.40179 9.39483 -5.27471 2.86102e-006 34.1929 -2.46662 6.42509 1.07549 -1.69232 -3.55271e-015 30.0959 -1.75404 6.02341 9.41317 -0.737356 3.8147e-006 28.3637 -1.75403 9.41332 -5.79657 5.75976 0 31.6072 -3.2043 5.21523 -6.13816 -5.45466 -27.891 13.5892 3.92723 117.51 -18.6572 -48.439 -3.8147e-006 28.0099 1.8232 12.0083 -82.2981 -3.96448 -3.8147e-006 24.3992 -2.49173 -149.819 63.0228 -167.613 27.891 13.5892 3.92714 -102.229 -21.3593 59.5272 0 28.0098 1.82319 -3.56826 -68.5007 9.57992 0 24.3992 -2.49171 140.892 67.2546 166.764 6.07685e-007 2.15392 0 6.35558e-008 -0.479289 -6.35557e-008 0.047932 62.0609 0.472498 -1.01778e-013 -2.62894e-017 -1.51661e-021 22.6769 9.63549 -5.36228 -148.454 2.79072 46.4606 -3.8147e-006 25.813 1.69098 179.965 -77.883 179.747 -3.8147e-006 28.5636 -0.966313 40.9882 13.2139 -94.3973 -22.6621 9.67048 -5.36213 130.705 -5.32287 -52.4009 -3.8147e-006 25.813 1.69102 -179.768 -75.3006 -178.038 -7.6294e-006 28.5636 -0.966301 -44.313 34.5007 110.042 0.0178713 23.1438 -0.944994 -0.0615938 -4.07253 -0.0943229 1.86265e-009 20.8625 4.12737 -0.0863872 -4.0088 -0.00302334 0 7.55202 -7.58202 4.91278e-010 4.26461 8.61323e-011 
0.252397 26.6328 0.214503 -90 -3.50835e-015 -90 0 0 0 -174.625 2.93798 0.508876 -2.98023e-007 42.8363 -0.548134 2.96654 -15.921 3.7368 -1.72854e-006 44.0461 -3.28882 5.24142 9.70051 -5.25228 2.81456e-006 34.1929 -2.46662 6.32958 1.09632 -1.69584 -3.5662e-008 30.0959 -1.75404 5.80072 9.41922 -0.735267 3.7908e-006 28.3637 -1.75403 9.272 -5.14501 5.65922 1.21072e-008 31.6072 -3.2043 5.14688 -5.83136 -5.59142 -27.891 13.5892 3.92723 117.175 -19.0333 -48.7785 -3.78538e-006 28.0099 1.8232 12.5982 -82.7113 -3.59592 -3.82119e-006 24.3992 -2.49173 -150.343 62.3187 -167.354 27.891 13.5892 3.92714 -101.428 -21.5008 59.9371 -3.79993e-008 28.0098 1.82319 -3.35781 -67.3154 9.81441 3.78366e-008 24.3992 -2.49171 140.431 67.7505 167.166 6.07685e-007 2.15392 0 4.47135e-008 -0.336778 -4.47134e-008 0.0478297 62.0609 0.472498 -1.01778e-013 2.22192e-016 3.03321e-021 22.6788 9.63546 -5.35428 -149.183 2.40564 46.3118 -3.8147e-006 25.813 1.69098 179.971 -77.8638 179.665 -3.81769e-006 28.5636 -0.966313 41.0021 12.4724 -94.839 -22.6602 9.6705 -5.37014 130.951 -5.49911 -52.2617 -3.8147e-006 25.813 1.69102 -179.768 -75.9039 -178.028 -7.63384e-006 28.5636 -0.966301 -44.0711 33.7297 109.669 0.018229 23.1438 -0.944994 -0.183138 -4.17081 -0.0101838 1.86293e-009 20.8625 4.12737 -0.197094 -4.20071 -0.0202856 5.71765e-014 7.55202 -7.58202 -1.00473e-005 4.40307 7.73998e-007 
0.499893 26.6887 0.424845 -90 -3.50835e-015 -90 0 0 0 -174.587 2.79121 0.514985 -2.98023e-007 42.8363 -0.548134 2.96001 -15.8825 3.73948 -1.72929e-006 44.0461 -3.28882 5.08515 10.0583 -5.21113 2.76762e-006 34.1929 -2.46662 6.23601 1.11687 -1.69947 -7.21224e-008 30.0959 -1.75404 5.58259 9.42495 -0.734767 3.76473e-006 28.3637 -1.75403 9.07168 -4.50635 5.55227 3.31815e-008 31.6072 -3.2043 5.04844 -5.45894 -5.78226 -27.891 13.5892 3.92723 116.838 -19.4 -49.119 -3.75639e-006 28.0099 1.8232 13.2504 -83.1185 -3.16243 -3.82796e-006 24.3992 -2.49173 -150.831 61.6246 -167.127 27.891 13.5892 3.92714 -100.642 -21.6127 60.3436 -7.51405e-008 28.0098 1.82319 -3.17191 -66.1516 10.0238 7.47449e-008 24.3992 -2.49171 139.953 68.2378 167.583 6.07685e-007 2.15392 0 2.74934e-008 -0.206844 -2.74933e-008 0.047807 62.0609 0.472498 -1.01778e-013 9.79511e-017 -0 22.6788 9.63547 -5.35441 -149.896 2.01018 46.1384 -3.8147e-006 25.813 1.69098 179.976 -77.8416 179.569 -3.82121e-006 28.5636 -0.966313 41.0235 11.7464 -95.2712 -22.6602 9.67049 -5.37001 131.192 -5.65894 -52.1364 -3.8147e-006 25.813 1.69102 -179.769 -76.4992 -178.017 -7.63838e-006 28.5636 -0.966301 -43.8471 32.9712 109.309 0.0182141 23.1438 -0.944994 -0.354778 -4.35823 -0.0175287 1.86258e-009 20.8625 4.12737 -0.307916 -4.29635 0.0681317 -1.13576e-013 7.55202 -7.58202 -1.00492e-005 4.54432 7.98862e-007 
0.74984 26.7451 0.63727 -90 -3.50835e-015 -90 0 0 0 -174.547 2.63342 0.521641 -2.98023e-007 42.8363 -0.548134 2.96001 -15.8825 3.73948 -1.72929e-006 44.0461 -3.28882 4.9812 10.3579 -5.19535 2.73629e-006 34.1929 -2.46662 6.13388 1.13923 -1.70322 -9.57871e-008 30.0959 -1.75404 5.36206 9.43068 -0.732851 3.74966e-006 28.3637 -1.75403 8.93423 -3.77859 5.44032 4.94688e-008 31.6072 -3.2043 4.98089 -5.08005 -5.92204 -27.891 13.5892 3.92723 116.492 -19.763 -49.466 -3.72726e-006 28.0099 1.8232 13.9897 -83.5272 -2.64335 -3.83512e-006 24.3992 -2.49173 -151.297 60.9218 -166.922 27.891 13.5892 3.92714 -99.8527 -21.6986 60.7567 -1.12374e-007 28.0098 1.82319 -3.00207 -64.9766 10.217 1.118e-007 24.3992 -2.49171 139.45 68.7253 168.024 6.07685e-007 2.15392 0 8.72764e-009 -0.0655802 -8.72753e-009 -0.000139771 62.0609 0.472498 -1.01778e-013 9.79511e-017 -1.51661e-021 22.6714 9.65299 -5.35438 -150.568 1.60551 45.9537 -3.8147e-006 25.813 1.69098 179.983 -77.8177 179.466 -3.825e-006 28.5636 -0.966313 41.0533 11.014 -95.7082 -22.6676 9.65298 -5.37003 131.483 -5.8242 -52.0065 -3.8147e-006 25.813 1.69102 -179.769 -77.0965 -178.007 -7.64308e-006 28.5636 -0.966301 -43.634 32.2029 108.953 0.000334804 23.1438 -0.944994 -0.428366 -4.45442 0.0800294 1.86249e-009 20.8625 4.12737 -0.418318 -4.48664 0.157611 -1.82299e-013 7.55202 -7.58202 -1.00509e-005 4.68138 8.19473e-007 
1.00224 26.802 0.851778 -90 -3.50835e-015 -90 0 0 0 -174.506 2.47415 0.528664 -2.98023e-007 42.8363 -0.548134 2.95995 -15.8822 3.73951 -1.7293e-006 44.0461 -3.28882 4.87387 10.6673 -5.17793 2.70386e-006 34.1929 -2.46662 6.03832 1.16013 -1.70665 -1.20726e-007 30.0959 -1.75404 5.13601 9.43638 -0.731631 3.73308e-006 28.3637 -1.75403 8.79777 -3.1248 5.34342 6.44841e-008 31.6072 -3.2043 4.88148 -4.70037 -6.06391 -27.891 13.5892 3.92723 116.139 -20.1222 -49.8198 -3.69802e-006 28.0099 1.8232 14.8377 -83.9387 -2.01775 -3.84267e-006 24.3992 -2.49173 -151.741 60.2114 -166.739 27.891 13.5892 3.92714 -99.1996 -21.7009 61.0188 -1.41166e-007 28.0098 1.82319 -2.8463 -63.7899 10.3962 1.47027e-007 24.3992 -2.49171 138.913 69.2182 168.497 6.07685e-007 2.15392 -3.55271e-015 -1.89843e-010 0.00142644 1.89946e-010 1.75498e-005 62.0609 0.472498 -1.01778e-013 9.96983e-017 -3.03321e-021 22.6695 9.65299 -5.36221 -151.291 1.18394 45.7372 -3.8147e-006 25.813 1.69098 179.988 -77.7967 179.376 -3.82833e-006 28.5636 -0.966313 41.0914 10.2776 -96.1483 -22.6695 9.65298 -5.3622 131.726 -5.98763 -51.903 -3.8147e-006 25.813 1.69102 -179.77 -77.7024 -177.997 -7.64799e-006 28.5636 -0.966301 -43.433 31.4303 108.601 6.43254e-006 23.1438 -0.944994 -0.54688 -4.55348 0.0901748 1.86225e-009 20.8625 4.12737 -0.524191 -4.57762 0.148964 -1.58318e-013 7.55202 -7.58202 2.78138e-010 4.81978 2.58598e-009 
